<svg width="1000.000000" height="1000.000000" version="1.1" baseProfile="full" xmlns="http://www.w3.org/2000/svg">
<defs><linearGradient id="cloudGradient"  x1="0" x2="0" y1="0" y2="1" ><stop offset="0%" stop-color="#ffffff"/><stop offset="50%" stop-color="#ffffff"/><stop offset="100%" stop-color="#8888bb"/></linearGradient><linearGradient id="backgroundGradient"  x1="0" x2="0" y1="0" y2="1" ><stop offset="0%" stop-color="#559dcc"/><stop offset="50%" stop-color="#559dcc"/><stop offset="100%" stop-color="#99dfee"/></linearGradient></defs><rect width="1000" height="1000" x="0" y="0" fill="url(#backgroundGradient)"/>
<g fill="url(#cloudGradient)" stroke="none"  stroke-width="1" fill-opacity="1.0"><path d="M559.895386, 768.884644C 607.959290 812.155640, 546.501465 837.657471, 517.964417 815.278625C 499.250122 867.239075, 430.554504 851.045227, 442.407959 811.777649C 420.207642 853.786377, 355.308685 781.901001, 408.713104 761.879517C 384.251221 711.396606, 424.506165 691.384827, 450.543701 715.436401C 471.305115 674.322327, 529.518982 679.511597, 526.107544 718.848816C 574.010925 680.321167, 617.121704 749.520569, 559.895386 768.884644Z
" /><path d="M809.269775, 372.220947C 821.008850 414.374878, 743.770935 392.665344, 748.634033 356.226746C 697.604492 361.017242, 681.269470 340.701904, 722.471130 315.951447C 701.329224 284.794922, 686.216431 256.078674, 746.092163 274.965057C 730.680969 218.623383, 821.602600 217.432465, 805.673645 257.253845C 801.769592 233.919571, 842.651733 228.435425, 866.346985 273.182770C 906.812317 271.789886, 938.116821 290.996155, 892.604797 313.429840C 924.139343 352.760956, 925.819031 375.933746, 869.080322 354.441559C 867.299377 389.348877, 818.641785 408.340637, 809.269775 372.220947Z
" /><path d="M178.682953, 776.545776C 186.810226 813.071106, 94.399902 784.960510, 92.599800 751.824707C 35.717228 775.680298, 28.390347 715.166199, 84.285576 707.763855C 74.735260 678.917725, 150.830948 641.075562, 159.995163 677.510681C 175.497360 658.894897, 259.432159 648.102234, 262.771545 683.824890C 266.242889 630.843201, 379.119476 689.850281, 315.295135 721.956238C 353.359802 750.159973, 278.557190 788.231934, 278.051941 763.218201C 267.353577 820.513306, 198.968399 816.075745, 178.682953 776.545776Z
" /><path d="M775.611450, 925.440491C 751.228149 938.671814, 717.104858 901.470947, 719.130127 875.620422C 677.424072 836.443604, 757.215698 797.726624, 752.436279 816.433167C 739.358337 787.554382, 853.918701 770.915405, 842.254333 807.011597C 869.370361 792.703186, 907.938660 826.781494, 898.848816 856.768555C 944.534851 892.227783, 872.886047 934.689270, 865.677307 915.992859C 874.287781 958.060425, 783.587952 957.072510, 775.611450 925.440491Z
" /><path d="M238.969635, 318.607025C 236.667740 364.259857, 149.348053 366.953552, 127.351715 325.234467C 108.412949 356.391663, 36.302216 310.718109, 60.131145 279.744049C 38.744064 239.918976, 93.898438 202.246597, 104.466682 227.584396C 96.300529 205.834274, 240.745850 186.853271, 216.063599 220.867188C 248.530945 178.911484, 283.916687 238.350555, 283.427490 266.303467C 325.265137 299.046448, 270.425354 344.952820, 238.969635 318.607025Z
" /><path d="M886.937561, 706.149841C 873.737183 725.013855, 747.432861 726.512329, 768.050293 686.210876C 739.281250 677.685120, 728.075989 640.158081, 742.789185 624.336243C 745.252747 607.278931, 805.796387 547.016113, 836.392029 582.343628C 850.304504 535.770996, 945.680786 560.899536, 955.342102 602.187012C 969.847961 600.218750, 971.613403 648.544678, 980.798706 664.041321C 986.018494 701.194336, 906.651367 742.148743, 886.937561 706.149841Z
" /><path d="M576.609741, 137.820679C 589.520142 179.580307, 559.863403 205.865784, 530.277832 180.550507C 523.828979 215.774597, 448.597168 222.777161, 439.889496 187.539474C 429.626221 227.844955, 374.744080 187.647827, 373.444580 153.529724C 321.364380 162.821716, 357.831268 98.712776, 380.930237 104.107101C 376.183105 77.916054, 457.958771 42.755352, 456.714966 76.452690C 477.952972 10.411856, 575.726501 45.945709, 543.785217 91.371147C 579.122742 71.991608, 578.895569 117.470947, 576.609741 137.820679Z
" /><path d="M487.359772, 500.861664C 503.202362 542.668762, 430.543121 560.068481, 391.555267 524.839783C 380.195221 578.631653, 269.768463 522.568237, 309.933685 485.708771C 294.252258 459.431458, 280.580017 415.015625, 324.041656 422.563629C 329.686798 401.485657, 406.057434 365.372925, 419.784119 398.491516C 426.365540 348.128906, 519.504150 403.293671, 501.506622 437.542328C 519.399963 445.880646, 528.680969 509.370789, 487.359772 500.861664Z
" /><path d="M624.088928, 667.574036C 615.120300 688.393311, 593.091797 676.299744, 596.309692 657.334961C 577.625427 660.904480, 577.812256 641.618652, 586.061035 634.977905C 566.268860 622.697266, 588.367065 603.637024, 599.340759 613.586731C 591.858215 599.870056, 620.866333 591.875854, 628.377258 605.680054C 640.212708 585.884644, 664.966309 596.046143, 656.177612 615.885071C 673.677673 608.793579, 691.234131 628.605225, 666.472473 638.229553C 674.644653 646.775208, 661.425903 667.176941, 653.237000 659.636963C 654.027283 674.251709, 629.150024 685.768433, 624.088928 667.574036Z
" /><path d="M480.535034, 343.360870C 473.225586 362.706512, 408.244171 352.258728, 408.548859 335.811188C 391.656860 348.089722, 384.491028 321.921844, 393.560272 312.669739C 387.375519 297.778625, 448.691406 276.641296, 450.544037 297.056641C 450.637177 283.425537, 523.132263 286.258301, 522.568848 304.570709C 536.708557 291.804474, 558.844421 315.471283, 537.676025 327.704712C 546.826538 341.679047, 486.238464 361.184387, 480.535034 343.360870Z
" /><path d="M853.643372, 115.931343C 851.557312 127.900871, 804.486267 125.743828, 795.139954 108.956902C 786.630310 110.253830, 759.399719 91.418396, 779.684509 83.341820C 774.018982 70.237282, 816.139709 47.243050, 822.718384 64.677620C 820.167358 51.415878, 876.713013 52.541855, 881.247192 71.611343C 899.125366 65.184662, 924.843323 88.180214, 896.795959 97.215637C 912.099426 115.909828, 858.491211 135.055084, 853.643372 115.931343Z
" /><path d="M243.286179, 981.918091C 243.241135 999.396973, 185.334915 999.374817, 184.051910 983.519836C 175.031433 1004.913757, 130.464691 984.891113, 139.532379 966.546387C 123.466393 972.846252, 116.283974 943.449158, 135.781433 940.930969C 129.590683 921.491516, 164.520874 905.802185, 174.994247 921.664429C 177.674774 900.060669, 243.451965 899.511047, 234.222519 920.021851C 245.524277 905.276733, 286.470764 918.977417, 278.804504 936.964600C 294.217163 940.018921, 298.087189 959.782715, 282.649780 962.577393C 290.898071 977.132690, 248.403519 997.767700, 243.286179 981.918091Z
" /><path d="M100.756271, 463.528839C 89.114563 474.315430, 53.315269 470.893463, 60.176132 453.250488C 38.128922 452.917053, 41.883312 441.854950, 55.776417 437.406464C 53.283981 415.144623, 83.537918 405.536438, 90.131927 425.269104C 94.721565 396.142273, 142.189789 401.657288, 143.137054 423.941437C 146.369324 399.389130, 181.996704 416.300903, 183.771896 434.200439C 199.431137 430.830627, 208.951370 444.369568, 188.256027 450.042328C 192.265045 472.988861, 160.523499 479.730347, 153.965240 462.196045C 153.775726 478.157593, 101.964943 483.534180, 100.756271 463.528839Z
" /><path d="M814.969238, 513.191345C 813.228760 534.720886, 767.531433 521.911377, 773.886597 503.574493C 749.586792 509.159271, 751.258484 491.532074, 768.111023 485.419861C 760.946289 468.421753, 796.393555 457.844055, 801.987610 472.385345C 803.263428 453.123108, 853.802979 452.673553, 850.030579 474.276917C 862.372620 454.730225, 885.179382 470.863739, 876.096924 489.671570C 895.805664 505.178772, 879.493591 521.458435, 860.576599 506.987732C 867.750061 527.539490, 820.822998 529.712585, 814.969238 513.191345Z
" /><path d="M133.386826, 890.305115C 122.640892 905.783081, 89.962135 887.022034, 97.680588 871.634033C 76.902512 867.933350, 82.389618 841.336609, 102.848145 845.147400C 99.197037 828.070435, 137.201797 814.657593, 145.001923 830.771362C 151.404236 810.917297, 196.185333 818.263855, 192.429245 839.321167C 206.550293 831.260864, 231.151733 853.695129, 209.450104 864.364685C 221.340775 882.789490, 198.906052 902.759644, 183.259567 887.061462C 187.392807 902.669617, 139.953629 907.456238, 133.386826 890.305115Z
" /><path d="M488.933899, 985.702332C 484.195343 1006.480957, 419.771271 991.757263, 432.063385 970.974976C 423.742889 971.701904, 418.412659 941.714172, 440.776123 946.716919C 434.297394 925.394165, 506.059631 923.167664, 506.367340 937.164001C 514.057251 927.349365, 558.813354 937.229065, 563.306152 951.860291C 579.696838 961.374146, 578.167908 983.365601, 554.706116 976.123047C 554.032104 998.654236, 496.096924 1006.266052, 488.933899 985.702332Z
" /><path d="M641.771179, 854.295227C 627.666199 865.863220, 602.062256 848.422363, 618.404114 835.349670C 598.386475 826.934509, 603.606140 805.644653, 623.966919 810.104187C 616.723328 791.578796, 643.088318 781.398926, 654.274658 797.551208C 663.458008 777.491394, 694.186340 787.391052, 686.526489 807.134460C 700.625488 803.561584, 711.607178 825.747742, 696.459167 831.644348C 708.851624 842.601257, 693.805481 863.664490, 676.600159 852.641907C 680.654907 875.426147, 640.133423 875.395020, 641.771179 854.295227Z
" /><path d="M274.468536, 599.723694C 279.674896 619.759033, 213.239639 625.828430, 207.534180 605.005981C 200.354904 629.959290, 158.154343 608.512024, 159.952332 588.832947C 144.759399 569.960083, 164.516891 553.063904, 179.261063 567.362793C 176.292007 546.045105, 245.832443 544.864624, 246.169434 562.045959C 255.758499 548.751770, 299.935486 559.154724, 293.830536 578.194336C 314.129608 595.079041, 289.104675 613.954285, 274.468536 599.723694Z
" /><path d="M127.705833, 546.826477C 128.308243 563.044922, 107.371704 573.826721, 91.092323 553.890503C 78.520943 579.393982, 54.237782 566.056335, 56.238518 544.456116C 47.411701 558.190002, 23.261684 533.065002, 43.541691 524.044678C 34.004959 513.760925, 38.884346 489.870880, 60.432316 504.601318C 63.834339 498.504761, 99.846321 483.324097, 97.025581 497.504822C 108.706863 471.098297, 139.357101 485.480347, 131.906296 506.908203C 142.105331 501.463684, 146.505753 517.373474, 144.661407 527.308350C 163.160797 532.971497, 136.817200 558.456238, 127.705833 546.826477Z
" /><path d="M318.902679, 164.644913C 322.109222 176.165390, 274.167358 203.915314, 274.602264 186.841339C 275.672913 207.809128, 213.872986 203.456650, 209.439087 184.683212C 200.511841 201.854599, 159.504883 175.248978, 172.435974 159.794113C 161.299530 148.348053, 176.328781 122.288155, 191.430725 130.898315C 192.955307 109.509674, 251.340485 97.755859, 252.133423 119.734413C 256.177429 98.658806, 312.823059 117.481636, 308.876862 134.701096C 324.179962 122.777374, 335.859283 157.869522, 318.902679 164.644913Z
" /><path d="M130.796432, 155.112152C 137.113327 163.628479, 115.378128 183.805923, 105.937485 171.447952C 107.311028 187.504623, 68.712784 187.515350, 69.604164 169.728043C 61.830952 177.784805, 37.775791 162.731064, 49.130356 151.246323C 29.539541 143.313034, 40.030472 121.932045, 59.918694 129.906754C 58.911041 112.713188, 87.556854 107.271591, 93.853012 121.763298C 102.538788 105.070381, 136.912369 113.847504, 125.404221 132.942337C 144.501541 127.158813, 142.887817 151.054840, 130.796432 155.112152Z
" /></g></svg>