<svg width="1000.000000" height="1000.000000" version="1.1" baseProfile="full" xmlns="http://www.w3.org/2000/svg">
<defs><linearGradient id="cloudGradient"  x1="0" x2="0" y1="0" y2="1" ><stop offset="0%" stop-color="#aaaaaa"/><stop offset="100%" stop-color="#cc7777"/></linearGradient><linearGradient id="backgroundGradient"  x1="0" x2="0" y1="0" y2="1" ><stop offset="0%" stop-color="#8E728B"/><stop offset="65%" stop-color="#8E728B"/><stop offset="100%" stop-color="#FC8F5F"/></linearGradient></defs><rect width="1000" height="1000" x="0" y="0" fill="url(#backgroundGradient)"/>
<g fill="url(#cloudGradient)" stroke="none"  stroke-width="1" fill-opacity="1.0"><path d="M564.683655, 766.975891C 582.306702 791.283203, 541.567444 803.793640, 530.445129 786.441528C 526.035156 813.996887, 459.371307 813.360413, 461.497284 790.030579C 458.045654 817.845825, 395.870453 795.538513, 409.710175 775.043030C 389.421082 762.154053, 393.230072 748.664307, 414.043701 752.754089C 415.245026 729.329102, 466.663086 717.098572, 471.237732 739.932007C 479.569580 712.979492, 549.700256 725.650085, 538.264709 746.222900C 547.418030 727.339417, 587.419006 748.096680, 564.683655 766.975891Z
" /><path d="M313.468964, 475.476837C 327.397186 492.511108, 294.370056 516.053345, 277.873108 497.501373C 278.614655 520.443970, 215.450272 524.785950, 214.987106 502.693542C 211.810059 521.585876, 162.608673 508.768158, 161.613297 488.014771C 141.895004 501.103241, 133.284271 472.373047, 148.987305 462.055450C 138.667587 448.722992, 172.524948 422.895660, 184.498138 440.007538C 185.487244 416.282867, 246.872528 413.198181, 247.364014 434.774017C 250.461258 413.571503, 303.047760 429.789215, 300.794373 449.417664C 320.609436 441.310425, 337.127594 465.094360, 313.468964 475.476837Z
" /><path d="M816.661377, 213.207321C 818.774780 234.564331, 760.724548 247.377579, 759.417847 224.425690C 755.840515 248.114243, 695.189697 245.387115, 688.425171 223.249680C 687.408020 239.808762, 628.940613 230.734161, 636.869324 210.229034C 619.867981 219.888275, 610.731934 200.456390, 628.850464 191.450333C 624.143372 171.336502, 661.620911 155.324081, 668.116943 175.691788C 666.200378 156.914597, 731.923828 148.979706, 736.313477 170.319839C 735.367188 146.765015, 803.808838 154.461136, 801.561218 177.845627C 813.304382 155.050049, 844.085144 175.583496, 833.359619 194.751190C 849.436096 208.150436, 830.333740 227.808884, 816.661377 213.207321Z
" /><path d="M702.887695, 512.771057C 711.240234 535.573914, 624.111816 549.126831, 615.655762 525.663208C 607.523926 550.354858, 528.608337 536.356506, 522.791443 515.838135C 508.231323 531.739075, 479.012878 508.300751, 494.157410 490.687195C 491.821259 478.025421, 535.657776 449.492676, 551.295227 469.131744C 557.014587 444.396545, 647.832520 445.937317, 651.219727 467.388123C 663.277344 451.380280, 722.120361 463.721008, 718.756653 486.768066C 741.690247 499.310455, 722.074097 523.832642, 702.887695 512.771057Z
" /><path d="M741.255859, 379.930115C 745.676636 402.993805, 640.057495 406.728485, 641.854431 386.656647C 632.308472 412.869995, 554.479309 393.178436, 560.657837 369.565582C 540.264954 369.302612, 536.152161 343.085632, 558.751038 341.514709C 554.727905 316.325531, 624.775452 300.375580, 637.568604 323.606934C 637.101440 303.716522, 735.487854 308.971191, 737.815247 329.314484C 746.521057 314.883820, 793.042664 336.632019, 784.074585 354.343445C 795.812683 367.989502, 755.275879 397.754303, 741.255859 379.930115Z
" /><path d="M971.486755, 464.910095C 982.521851 485.669739, 947.559204 500.386627, 935.894104 478.162048C 935.780518 498.620361, 877.560364 501.668762, 880.384033 481.420624C 876.636963 505.023468, 828.302673 496.586639, 830.904968 473.162567C 819.231934 484.708038, 805.160889 473.145630, 810.586365 457.248199C 800.195679 437.031311, 817.927002 424.848785, 828.926147 441.116760C 822.327881 419.091095, 872.041626 411.165741, 877.351318 432.308990C 874.224609 410.623840, 931.411865 412.552246, 933.225281 434.942139C 942.322021 415.303833, 978.280701 428.611420, 970.429321 447.785339C 992.596313 444.005920, 986.979919 463.470947, 971.486755 464.910095Z
" /><path d="M525.127197, 209.426773C 522.940979 230.214981, 461.778473 230.569885, 454.685547 210.625458C 454.900879 228.705429, 386.257294 226.786850, 394.444611 202.597290C 388.087036 220.978333, 346.851685 209.527054, 367.391876 188.405716C 351.027924 180.394333, 371.944427 158.596329, 383.850433 173.466141C 372.940002 156.261444, 435.761719 142.842392, 437.539825 163.479385C 444.376129 144.551788, 504.216583 139.896423, 507.972626 162.256302C 506.392242 134.103989, 572.684143 148.193176, 568.272278 170.263611C 583.069336 156.307922, 605.639709 163.294083, 595.428955 184.445801C 604.880676 197.753937, 593.788452 217.088943, 579.079895 199.391037C 576.073181 225.659760, 527.504333 232.609985, 525.127197 209.426773Z
" /><path d="M264.123260, 797.000183C 266.472931 815.743530, 212.677200 810.091736, 208.594833 790.113770C 201.492813 807.574402, 162.150513 790.611694, 177.205750 770.692444C 148.441605 759.207520, 152.419556 740.295532, 184.629028 747.814941C 177.657562 727.251465, 220.237671 712.362976, 227.394623 732.175476C 223.381607 712.637146, 279.689209 706.959839, 285.511475 731.084717C 292.597839 707.209045, 337.636078 722.024536, 331.812500 745.052673C 348.897827 737.708679, 361.002716 756.581238, 344.653992 767.549866C 358.472595 785.526794, 330.595886 805.608765, 318.033142 788.059814C 315.984589 805.422791, 260.127502 816.744263, 264.123260 797.000183Z
" /><path d="M140.467682, 918.601685C 139.691162 938.203918, 61.166622 930.450134, 62.961403 909.320496C 46.672234 925.398193, 20.079762 904.725830, 31.372381 887.289490C 21.842987 870.942749, 53.710400 847.544739, 64.187256 865.401794C 59.488895 843.836914, 138.099823 835.586426, 142.202042 856.466492C 148.754639 832.808289, 228.555786 842.568298, 219.760559 865.712891C 234.330475 851.219543, 262.865906 869.712708, 251.473831 887.729614C 261.635712 904.649048, 228.016190 929.339478, 218.782486 909.632080C 216.398315 927.685913, 137.306732 940.559753, 140.467682 918.601685Z
" /><path d="M408.861084, 614.294128C 407.037689 631.800903, 358.156403 622.691162, 359.331024 601.473877C 341.185516 617.542175, 320.436523 594.305847, 346.662048 581.282410C 333.468323 566.222351, 362.388275 543.949768, 376.776337 563.158386C 368.433380 537.458496, 436.543884 531.463013, 435.596802 555.573975C 436.358398 536.831726, 498.767944 540.513123, 495.627411 562.074585C 509.570740 542.789246, 536.519714 559.830505, 528.806519 579.621460C 555.967957 592.414246, 541.524902 609.903198, 519.624329 600.012146C 526.899841 626.481934, 479.734802 635.656067, 472.373077 613.714966C 475.858063 632.407532, 415.970978 635.557739, 408.861084 614.294128Z
" /><path d="M349.499329, 879.927979C 349.320404 904.302490, 275.334290 889.956909, 284.934113 869.088501C 269.385864 882.906860, 261.586792 858.910339, 273.857635 847.687683C 263.604187 829.169189, 316.132233 812.740723, 324.602783 831.825562C 331.220062 812.462036, 403.876404 811.777832, 398.993591 833.435364C 414.666443 815.355164, 453.921143 828.614014, 441.065094 851.305969C 458.194946 871.679382, 435.766174 888.788818, 419.166595 871.993225C 425.389069 890.277161, 347.462158 903.859497, 349.499329 879.927979Z
" /><path d="M695.916260, 885.291077C 694.848267 903.645142, 610.673279 888.084656, 618.343262 867.543396C 599.522766 859.665833, 603.733032 836.230591, 624.087891 840.938477C 622.792969 819.476868, 708.581604 804.555237, 708.828247 825.491394C 714.036743 804.370728, 807.180115 809.192505, 808.813538 832.823181C 817.847961 816.360596, 854.145813 839.069031, 848.823792 857.417969C 855.504639 875.095581, 804.704834 902.018982, 798.759033 880.773010C 801.520447 906.471313, 701.503845 908.050293, 695.916260 885.291077Z
" /><path d="M933.862000, 684.955688C 934.581421 703.569153, 866.662415 709.519592, 858.326111 689.987976C 849.310913 712.170898, 788.643311 696.403687, 798.849609 674.332825C 776.589966 671.351135, 774.469299 648.642639, 800.177185 649.767639C 798.591187 629.185791, 857.646545 616.006958, 861.310181 634.773132C 863.769226 610.057007, 937.792847 619.136475, 936.257568 640.629761C 951.232361 622.322998, 985.066101 645.162537, 968.635864 662.931519C 978.377930 682.196655, 941.493225 703.472229, 933.862000 684.955688Z
" /><path d="M268.442841, 283.735535C 271.664825 303.009552, 184.743896 299.081451, 190.846466 276.940582C 183.721542 295.354706, 151.456558 283.041046, 162.057831 262.041962C 159.906372 240.927780, 196.259827 227.607346, 198.924713 247.758713C 194.506577 223.273788, 286.966583 218.452530, 279.871735 242.449692C 284.271149 215.694183, 365.202148 225.127960, 357.526825 249.221878C 362.119232 230.901443, 395.744690 244.968155, 386.444427 264.112030C 399.015900 282.753693, 362.620300 299.838074, 349.701233 278.406097C 351.040985 306.400085, 275.883545 307.116364, 268.442841 283.735535Z
" /><path d="M198.097733, 96.522110C 190.943619 120.992516, 151.725754 103.517784, 153.560959 81.751503C 134.275116 81.368675, 111.662720 67.775246, 145.742264 60.110615C 129.966110 45.680611, 168.859543 21.877426, 178.296570 41.715633C 176.273499 23.660324, 226.158997 11.078047, 236.006119 35.165398C 241.073837 8.699669, 286.418457 21.942469, 291.894257 43.521851C 300.248779 17.881733, 340.777679 43.612473, 319.835724 62.878738C 339.315887 82.867424, 321.186951 96.135025, 306.769073 84.187531C 314.680573 100.895630, 261.140686 120.402306, 258.802399 97.487320C 265.204895 120.494873, 201.701019 119.259193, 198.097733 96.522110Z
" /><path d="M959.893921, 937.194336C 976.006226 942.287903, 961.366333 980.345581, 934.536804 967.162048C 937.256042 977.224243, 902.116272 970.657349, 895.392334 954.485657C 868.826416 948.747314, 864.878479 915.949036, 896.509460 916.668152C 886.825500 901.627258, 938.137878 889.900391, 936.345642 905.926147C 951.407837 899.749512, 982.867920 926.606018, 959.893921 937.194336Z
" /><path d="M954.078430, 568.305420C 946.051819 580.008179, 913.593079 586.682190, 898.097046 566.298462C 876.320679 562.790894, 850.367554 538.994568, 883.786072 532.064392C 872.254700 501.469666, 934.135010 490.125763, 930.905457 512.872070C 931.276672 504.670929, 981.081970 517.276917, 974.394897 535.221375C 995.024231 555.349854, 972.471008 581.095520, 954.078430 568.305420Z
" /><path d="M515.269287, 967.314026C 524.701721 998.267944, 500.941559 1009.987061, 485.154907 987.031860C 485.667816 1011.358521, 431.412109 995.441223, 444.635498 979.410767C 429.363129 984.058044, 428.342926 958.491028, 434.193176 952.064819C 420.164581 943.029358, 457.755890 914.899353, 464.260681 932.314880C 475.704498 906.275696, 517.948792 913.366333, 504.798126 939.892639C 523.870605 932.281128, 525.298706 961.251404, 515.269287 967.314026Z
" /><path d="M56.498283, 516.205078C 48.127480 522.731079, -6.052142 509.143127, 19.131540 494.212799C -13.004555 479.646790, 14.404757 449.301453, 32.119938 457.148590C 29.465204 431.588684, 66.480164 433.598602, 77.529694 456.189026C 94.943253 448.226318, 106.335365 481.751343, 92.661079 492.659058C 113.295708 515.583069, 91.024544 535.025818, 56.498283 516.205078Z
" /><path d="M394.516235, 407.965302C 379.767914 415.771118, 358.047760 397.790771, 363.358704 382.437561C 338.066284 365.764832, 365.624573 338.714264, 380.212158 347.397125C 386.730804 329.523743, 417.350433 332.603333, 421.806152 351.226227C 450.898346 349.055359, 460.508667 382.817047, 430.709564 388.637817C 441.147217 402.674194, 402.023590 427.163361, 394.516235 407.965302Z
" /><path d="M913.250366, 337.781494C 909.759399 357.519867, 891.589050 365.539612, 882.723511 340.108490C 873.709961 358.267853, 843.987671 332.776154, 864.999878 319.506287C 841.171875 303.352264, 854.401672 283.410431, 877.786865 296.558167C 870.145630 267.618408, 896.170105 273.439392, 908.309265 294.191162C 928.232422 275.485504, 946.769287 300.490326, 926.072632 314.770050C 949.051941 332.989105, 928.826416 348.585266, 913.250366 337.781494Z
" /><path d="M76.944450, 665.687622C 79.739891 684.398560, 34.817398 686.743408, 29.741508 666.759827C 10.711216 674.733704, -7.333095 652.615112, 13.328254 641.643127C 9.383601 619.652893, 39.023552 606.571960, 50.367371 625.017517C 63.881199 610.048340, 97.873146 619.002258, 89.716911 639.838867C 118.289948 644.146545, 95.448349 677.908447, 76.944450 665.687622Z
" /><path d="M101.922913, 797.895996C 100.858734 809.272705, 54.378304 809.005798, 64.334702 789.313416C 43.756798 788.647217, 27.148712 763.860107, 54.060677 756.695251C 35.841431 747.353882, 66.223320 719.589233, 81.365417 732.629639C 81.678375 713.465393, 122.692429 725.637085, 118.969284 741.160034C 141.672470 741.522034, 140.511444 768.917297, 129.302979 773.763916C 139.805420 794.415771, 108.697525 813.297058, 101.922913 797.895996Z
" /><path d="M907.033142, 144.968689C 898.630920 164.975143, 867.177002 154.278519, 862.253845 130.148804C 830.217896 132.189743, 863.793457 92.779007, 871.631653 99.745232C 866.654602 68.456841, 938.266357 74.993675, 922.218079 95.737839C 946.975525 90.582748, 962.500427 110.152588, 944.165771 123.659851C 952.455383 146.578857, 918.733826 167.957260, 907.033142 144.968689Z
" /><path d="M717.028503, 697.722534C 725.485474 716.153687, 695.715332 739.562866, 684.976562 717.061523C 671.472351 730.359802, 658.147949 713.172791, 652.537476 698.158081C 622.350586 693.233032, 651.393311 658.014343, 664.501648 667.113159C 656.533020 653.374390, 695.378479 646.435242, 704.349487 666.792236C 719.012451 655.721069, 730.573792 687.438416, 717.028503 697.722534Z
" /></g></svg>