<svg width="1000.000000" height="1000.000000" version="1.1" baseProfile="full" xmlns="http://www.w3.org/2000/svg">
<defs><linearGradient id="cloudGradient"  x1="0" x2="0" y1="0" y2="1" ><stop offset="10%" stop-color="#666699"/><stop offset="50%" stop-color="#444488"/></linearGradient><linearGradient id="backgroundGradient"  x1="0" x2="0" y1="0" y2="1" ><stop offset="0%" stop-color="#000055"/><stop offset="100%" stop-color="#333355"/></linearGradient></defs><rect width="1000" height="1000" x="0" y="0" fill="url(#backgroundGradient)"/>
<g fill="url(#cloudGradient)" stroke="none"  stroke-width="1" fill-opacity="1.0"><path d="M524.764709, 766.975891C 543.719727 788.531250, 506.836151 804.877380, 494.381836 790.277222C 483.288391 816.259216, 441.280121 800.899719, 450.089539 779.143250C 432.633057 784.511963, 425.200043 746.996277, 453.044617 748.947327C 450.530945 720.272034, 496.128601 721.506470, 499.166809 741.382568C 521.380920 724.894348, 541.202881 751.079224, 524.764709 766.975891Z
" /><path d="M227.231079, 517.654663C 226.375534 536.164917, 146.479202 543.463257, 139.949677 517.734680C 115.484146 530.592773, 88.919716 510.653961, 112.670387 492.996368C 113.236580 468.119873, 189.174454 455.999420, 183.059219 477.597260C 185.455994 457.360077, 255.721909 470.725952, 253.926468 492.799744C 274.193665 504.676208, 256.511658 533.551392, 227.231079 517.654663Z
" /><path d="M343.844238, 675.292725C 350.191284 699.861084, 305.761475 703.714539, 303.137939 679.279968C 300.532043 703.443054, 261.297333 692.909546, 265.356140 670.935852C 247.235123 687.965881, 236.247330 669.532715, 244.916016 653.444275C 220.030640 650.160889, 225.719406 628.617798, 249.617386 633.480042C 236.308411 612.395691, 270.807831 599.566345, 277.666260 618.661194C 275.443146 589.943604, 318.522736 589.000549, 318.359375 614.642578C 322.140350 589.083984, 363.628174 601.721680, 356.168610 622.957642C 370.950531 605.510864, 390.987183 621.535767, 376.666260 640.433411C 397.970154 646.756531, 389.579895 664.917725, 372.030609 660.401245C 381.212158 684.580078, 355.059235 697.901245, 343.844238 675.292725Z
" /><path d="M633.183899, 383.272858C 629.066406 399.808380, 594.916565 408.674042, 590.846863 390.245148C 580.534607 408.941101, 543.280457 404.990845, 546.590759 385.273224C 529.166748 407.162628, 503.815948 391.304321, 521.103394 370.681244C 498.205994 356.551758, 499.332458 346.444733, 526.298950 353.290314C 511.548065 331.929016, 563.885437 319.801971, 559.748779 341.229950C 562.018127 326.196533, 611.179688 321.554016, 605.816528 340.137817C 617.878723 324.555145, 656.024963 328.598785, 642.967529 350.524445C 656.332275 339.788666, 684.282532 354.730560, 653.835327 367.534576C 659.095703 391.283051, 641.486877 398.713776, 633.183899 383.272858Z
" /><path d="M240.253418, 263.085632C 229.389847 284.819000, 180.378235 247.855133, 190.078674 227.469269C 186.844589 207.055618, 240.013824 180.255692, 254.952271 199.911377C 272.750061 180.847885, 319.291473 217.968918, 305.230316 235.483826C 316.205719 259.873077, 250.879150 286.819550, 240.253418 263.085632Z
" /><path d="M280.712067, 363.744720C 279.370575 384.597015, 222.813034 374.130585, 229.628143 349.772827C 208.457855 360.138885, 210.498596 328.339111, 222.096100 323.142487C 205.771637 295.876129, 264.490387 280.627228, 263.782349 303.887939C 261.161346 287.859436, 331.482727 286.562500, 323.325958 306.494537C 342.261627 285.172180, 361.927643 309.555145, 355.931702 329.001343C 379.001434 343.869446, 350.206848 366.436005, 337.070038 354.476257C 343.418976 383.299377, 290.248444 387.233917, 280.712067 363.744720Z
" /><path d="M580.384338, 560.492188C 573.595764 581.742493, 490.271637 577.384033, 487.824890 556.812927C 471.158905 561.428711, 444.391174 533.028442, 468.518616 522.750854C 462.684692 502.088562, 547.411316 484.389099, 549.122681 505.337311C 551.331177 478.165375, 627.234375 507.020844, 618.342712 528.616150C 630.269775 540.054138, 593.379456 574.599792, 580.384338 560.492188Z
" /><path d="M922.970154, 96.073082C 922.263794 121.538834, 864.654175 93.259506, 868.981873 73.173576C 851.887817 54.848469, 884.659851 23.316402, 907.511047 41.103626C 912.538147 27.355709, 968.217712 43.891487, 961.560730 63.952053C 977.728027 87.715088, 929.860779 111.486938, 922.970154 96.073082Z
" /><path d="M763.285400, 695.650208C 759.921570 715.173096, 734.202148 714.293640, 733.810181 694.840759C 730.320618 708.222412, 705.571045 701.627686, 712.220703 684.336914C 684.377258 693.987793, 685.280334 674.865173, 708.609192 669.048889C 692.805847 647.152771, 714.903381 637.421204, 724.663818 656.123108C 717.049866 636.002869, 751.929321 631.255066, 752.879761 651.601807C 760.024719 629.823425, 781.220032 632.893005, 780.067261 657.598511C 802.751282 640.845398, 812.077576 653.227112, 793.517395 671.309998C 811.472473 678.116333, 805.439453 694.981384, 786.942810 686.326782C 798.613281 706.163025, 773.120300 717.152893, 763.285400 695.650208Z
" /><path d="M857.937073, 846.123718C 870.737366 865.789490, 868.318298 879.230957, 842.047241 865.909790C 854.289307 884.900269, 802.299622 896.675110, 804.923645 875.868713C 798.423523 896.589600, 767.206421 891.203308, 763.919922 871.345215C 756.413635 888.550110, 723.340698 873.996765, 738.203491 854.453735C 709.876587 850.283997, 723.456482 831.253052, 739.795654 833.090393C 732.553101 815.820557, 765.173401 797.484497, 767.952209 817.241516C 764.324219 801.343994, 806.759705 795.615967, 809.511169 814.315857C 816.043396 801.472046, 856.279785 805.966614, 845.045471 825.680969C 866.565735 808.532532, 877.110229 833.293152, 857.937073 846.123718Z
" /><path d="M152.476822, 611.929749C 160.454178 632.064636, 135.555908 645.903259, 125.417145 623.737793C 121.357681 643.419922, 98.222633 645.697998, 91.970894 623.743103C 82.391624 647.620361, 53.415051 629.961975, 64.900879 611.943604C 47.597427 625.367676, 37.565960 602.714966, 54.536797 592.841858C 39.100594 584.742493, 50.958958 563.902527, 64.833488 573.727051C 52.441154 550.000122, 85.782898 544.006104, 91.861832 561.893127C 92.339149 541.020325, 124.859932 540.482483, 125.308014 561.855835C 133.762741 538.537537, 158.400177 552.383362, 152.409286 573.629456C 166.646622 564.634094, 180.220886 582.200012, 162.824005 592.721191C 184.669296 597.563232, 162.445343 622.455017, 152.476822 611.929749Z
" /><path d="M649.141846, 214.388611C 666.214294 238.834259, 645.836243 252.355728, 626.487854 233.677017C 627.238586 256.855743, 578.811401 251.728363, 585.574402 232.256287C 575.889465 246.492813, 549.464539 226.073975, 567.277344 211.545868C 550.717285 196.067459, 564.351440 173.353317, 589.876953 192.237122C 593.258118 170.531448, 629.744446 170.021576, 630.794312 193.621048C 650.558655 179.338211, 681.285095 198.321625, 649.141846 214.388611Z
" /></g></svg>