<svg width="150.000000" height="150.000000" version="1.1" baseProfile="full" xmlns="http://www.w3.org/2000/svg">
<defs><linearGradient id="cloudGradient"  x1="0" x2="0" y1="0" y2="1" ><stop offset="0%" stop-color="#ffffff"/><stop offset="100%" stop-color="#ffffff"/></linearGradient></defs><g fill="url(#cloudGradient)" stroke="black"  stroke-width="2" fill-opacity="1.0"><path d="M125.000000, 75.000000C 134.067490 77.176178, 145.488861 104.862602, 113.313591 94.275497C 119.208138 118.345360, 88.593475 122.632919, 83.717255 104.540535C 85.639275 117.535164, 58.205429 116.580505, 50.045982 100.996674C 35.973167 112.621742, 10.128268 99.122253, 28.039623 85.300499C -2.826218 91.500648, 11.582332 64.848038, 27.985182 64.789299C 27.657412 46.986996, 41.052940 36.686413, 49.908119 49.051144C 51.816933 37.200706, 75.674583 24.881672, 83.560402 45.442955C 97.950897 27.292730, 120.409019 38.383911, 113.211075 55.651386C 131.549362 37.964516, 134.718903 65.800552, 125.000000 75.000000Z
" /></g></svg>