<svg width="150.000000" height="150.000000" version="1.1" baseProfile="full" xmlns="http://www.w3.org/2000/svg">
<defs><linearGradient id="cloudGradient"  x1="0" x2="0" y1="0" y2="1" ><stop offset="0%" stop-color="#ffffff"/><stop offset="100%" stop-color="#ffffff"/></linearGradient></defs><g fill="url(#cloudGradient)" stroke="black"  stroke-width="2" fill-opacity="1.0"><path d="M125.000000, 75.000000C 142.462311 85.587105, 130.775894 104.862602, 113.313591 94.275497C 118.249146 108.505775, 88.652809 118.770813, 83.717255 104.540535C 82.141403 119.513161, 48.470131 115.969299, 50.045982 100.996674C 37.478027 118.617203, 15.471669 102.921028, 28.039623 85.300499C 6.723337 85.357079, 6.668896 64.845879, 27.985182 64.789299C 16.817596 49.233078, 38.740536 33.494919, 49.908119 49.051144C 47.954262 30.828215, 81.606544 27.220026, 83.560402 45.442955C 90.369965 25.664381, 120.020638 35.872810, 113.211075 55.651386C 127.037506 47.227074, 138.826431 66.575684, 125.000000 75.000000Z
" /></g></svg>