<svg width="1000.000000" height="1000.000000" version="1.1" baseProfile="full" xmlns="http://www.w3.org/2000/svg">
<defs><linearGradient id="cloudGradient"  x1="0" x2="0" y1="0" y2="1" ><stop offset="0%" stop-color="#aaaaaa"/><stop offset="10%" stop-color="#aaaaaa"/><stop offset="80%" stop-color="#444444"/><stop offset="100%" stop-color="#333333"/></linearGradient><linearGradient id="backgroundGradient"  x1="0" x2="0" y1="0" y2="1" ><stop offset="0%" stop-color="#ffffff"/><stop offset="50%" stop-color="#777777"/><stop offset="100%" stop-color="#aaaaaa"/></linearGradient></defs><rect width="1000" height="1000" x="0" y="0" fill="url(#backgroundGradient)"/>
<g fill="url(#cloudGradient)" stroke="none"  stroke-width="1" fill-opacity="1.0"><path d="M655.173401, 771.402832C 709.980347 817.060059, 643.518311 855.874451, 608.238220 831.109375C 606.552917 898.874939, 508.546661 915.143311, 503.371124 860.070618C 504.550781 928.613464, 359.568390 891.303955, 389.592834 844.748352C 363.259766 856.187317, 292.181091 830.175476, 320.089783 792.305176C 282.099945 784.167969, 272.011749 720.895508, 327.351562 727.255859C 324.537292 670.476196, 414.492310 642.392090, 407.983704 680.008179C 387.118347 619.740173, 544.226746 612.393311, 524.294067 672.648376C 519.463257 652.205933, 642.672729 662.639160, 621.912720 708.616821C 642.767151 688.216858, 664.292725 752.686646, 655.173401 771.402832Z
" /><path d="M723.278259, 445.358032C 717.208679 480.790680, 637.811340 513.963623, 623.780396 473.882568C 601.403076 516.869324, 507.347931 513.269714, 512.534607 467.774567C 475.039398 524.465210, 387.665741 482.553101, 424.825714 428.971375C 374.512451 442.013794, 328.169891 400.705811, 388.473297 369.780548C 320.525909 347.819305, 393.431335 286.851288, 415.007568 308.976257C 402.201874 281.147614, 490.802246 229.299164, 496.012390 265.844421C 504.679688 226.454254, 616.905273 199.102631, 605.794678 254.065552C 602.262817 201.919464, 747.941162 220.151810, 709.533630 277.375671C 720.862549 263.087280, 793.124329 293.696869, 774.325439 328.381317C 813.541016 336.871460, 817.792969 387.412140, 779.619385 390.904510C 803.589111 415.398987, 788.803711 480.963226, 723.278259 445.358032Z
" /><path d="M455.167969, 199.217468C 452.782288 226.998642, 256.084564 228.806290, 286.885834 184.378693C 246.138138 226.702271, 144.544998 174.973022, 196.511444 130.362106C 146.208801 102.664848, 163.044342 37.603943, 236.933960 68.779503C 216.547699 9.838655, 379.260742 -20.649761, 384.497162 35.670441C 372.831177 -4.148071, 580.393372 -4.965103, 552.843628 50.411110C 604.119080 -0.780359, 708.223694 50.056782, 643.453125 104.374969C 668.946228 111.985741, 650.538879 190.270752, 603.298706 165.981049C 603.336914 214.097717, 496.021027 246.997711, 455.167969 199.217468Z
" /><path d="M153.693390, 963.076416C 143.374832 985.352173, 109.543770 969.450928, 108.707520 953.888062C 93.773903 963.831604, 83.398247 944.532227, 92.897125 934.491333C 79.729523 923.564514, 103.855637 898.680115, 115.514832 916.237549C 111.658012 903.377686, 170.685196 893.051025, 163.324219 909.809387C 166.343231 899.609863, 208.465988 903.669739, 208.346115 918.968689C 225.663986 912.858704, 246.779221 925.194397, 224.232651 938.355164C 243.434921 955.547180, 212.479904 972.816345, 201.686661 956.623535C 206.668915 972.299011, 155.920547 980.349976, 153.693390 963.076416Z
" /><path d="M228.685028, 597.325867C 233.085876 614.690979, 193.076492 614.856873, 192.289856 599.577332C 180.926071 616.194702, 159.018799 603.115723, 165.866028 587.523010C 144.015762 582.290039, 148.931030 566.615356, 169.292404 570.231445C 163.477448 554.463440, 198.716873 545.407959, 199.991302 560.711243C 203.543060 542.555176, 240.337555 549.316406, 234.867676 566.124573C 250.251709 549.672852, 268.225067 569.511780, 247.683701 582.398865C 260.395233 599.937561, 234.097946 610.700195, 228.685028 597.325867Z
" /><path d="M965.748718, 275.782593C 972.710999 287.881317, 920.303162 308.944000, 919.315063 290.902710C 912.125000 315.981232, 867.195007 305.806702, 860.586975 285.925568C 842.776184 303.635284, 823.425049 277.818024, 833.746155 264.595490C 815.310974 243.021912, 853.378296 226.298981, 858.985168 242.959320C 861.992554 221.693344, 917.802673 217.421814, 917.316528 237.294113C 926.651428 212.633820, 978.496521 231.047333, 964.856934 251.861862C 985.398804 253.072952, 971.308838 275.117798, 965.748718 275.782593Z
" /><path d="M417.364502, 970.183533C 420.575317 989.500183, 377.629730 1002.668213, 363.284668 984.373413C 364.993317 1006.404785, 299.795898 996.750671, 298.994415 976.023438C 278.258392 987.399353, 273.828125 962.170044, 288.724945 953.475891C 286.654297 933.569397, 343.872345 922.123718, 342.736237 939.257629C 345.511322 918.887146, 417.319946 926.548706, 407.066681 947.573792C 423.996460 944.666748, 430.505432 963.207031, 417.364502 970.183533Z
" /><path d="M889.981689, 759.597839C 900.828735 775.308289, 844.271301 791.560364, 839.010803 771.647095C 834.981140 793.861511, 771.935242 784.425537, 784.346619 762.758118C 766.740540 773.879089, 756.117859 750.512695, 767.113525 739.618164C 760.194153 716.279663, 788.894775 700.692200, 800.276062 719.635620C 799.237793 701.774475, 860.299133 701.611328, 858.885803 717.843567C 868.566589 695.810974, 901.461609 719.253784, 898.850098 735.590149C 923.057739 736.314575, 905.251770 766.483093, 889.981689 759.597839Z
" /><path d="M796.760193, 626.537292C 790.345703 639.842346, 746.637878 635.807556, 739.266357 614.090698C 728.119873 620.843323, 710.961792 592.135742, 723.792175 584.892151C 717.470520 576.083069, 756.966797 546.531494, 761.979004 560.907959C 759.081604 551.824829, 827.111450 543.815979, 825.098572 560.181641C 829.903198 539.997314, 866.050415 569.787537, 865.665466 583.259644C 886.774719 586.368164, 874.109741 621.088989, 853.160767 612.780151C 854.458618 635.178833, 788.241272 644.549438, 796.760193 626.537292Z
" /><path d="M156.084167, 887.382935C 155.566788 900.025269, 96.512688 905.018677, 99.236855 888.321594C 89.794830 907.863831, 51.576340 890.673279, 57.466175 871.869263C 40.268314 872.360840, 35.500206 849.622253, 55.217308 847.654236C 48.867462 825.812073, 80.394882 808.325867, 93.806351 829.847656C 93.147186 806.618652, 156.344254 807.037231, 150.650055 828.870422C 159.300934 813.619019, 196.519974 824.301636, 192.482193 845.294373C 214.238388 840.657837, 206.143616 867.930298, 194.821594 869.507874C 198.357315 880.511292, 162.854034 901.007812, 156.084167 887.382935Z
" /><path d="M176.043884, 406.712250C 178.884354 430.197632, 112.206688 435.419739, 105.838982 414.626617C 101.235985 435.443542, 44.711304 411.515320, 54.986080 392.091675C 37.888996 379.008087, 55.587139 350.661926, 74.291336 361.621643C 68.109192 343.794617, 143.117950 332.562927, 144.467239 353.658569C 148.663467 336.054535, 198.125671 361.147705, 195.402390 376.158142C 215.196472 385.636780, 195.581253 417.876831, 176.043884 406.712250Z
" /><path d="M868.472107, 416.660248C 857.858093 425.606812, 831.922058 417.680084, 837.804443 403.556244C 812.393738 397.855347, 822.905945 378.698273, 843.860107 385.635712C 841.636475 369.005676, 888.165405 360.940674, 882.083191 376.380463C 882.676147 355.484253, 922.775146 361.361877, 923.718262 382.753265C 936.148376 368.712433, 958.329468 386.616638, 937.442810 399.959839C 946.995300 416.757080, 931.685181 432.773438, 912.931763 415.055481C 918.532654 434.608765, 873.235779 434.769836, 868.472107 416.660248Z
" /><path d="M874.936279, 202.604111C 865.629639 210.946289, 780.059814 226.080338, 781.401367 202.799591C 766.962830 232.404587, 724.681702 206.629730, 705.352112 185.448547C 695.594910 185.749817, 644.741821 172.651733, 675.808228 157.171967C 670.112671 144.384125, 687.626404 108.605568, 704.043396 128.759995C 683.340576 111.685173, 770.124634 83.370667, 779.283264 111.054375C 786.560913 82.842789, 847.380859 86.809906, 872.817078 110.811432C 875.960510 100.003716, 960.733887 107.633774, 948.952942 128.123871C 982.838623 107.489304, 1017.278015 136.567062, 978.638184 156.385406C 1010.028076 156.948685, 998.243347 201.779053, 950.545105 184.811676C 941.136169 188.888290, 889.757507 223.965256, 874.936279 202.604111Z
" /><path d="M94.208504, 329.871826C 83.919563 341.025146, 19.433321 337.064941, 23.495680 314.553314C 3.225378 320.353485, 4.685200 300.338776, 11.991396 289.666870C -0.208800 264.121094, 45.589455 244.431351, 66.428207 269.776672C 64.861938 233.363068, 130.954971 240.517487, 154.948410 266.522888C 154.453445 234.637039, 233.715881 257.285248, 225.747925 281.809723C 244.009705 262.937347, 260.611145 297.807678, 237.393219 306.690979C 253.007507 319.180237, 197.908020 347.459564, 183.069168 326.605530C 194.581406 338.509583, 90.644081 350.942108, 94.208504 329.871826Z
" /><path d="M145.585571, 743.770569C 153.011597 773.032898, 54.244568 758.224365, 77.534500 733.175720C 68.567902 746.638794, 50.973446 731.904480, 50.413067 713.163025C 29.778698 694.835876, 63.672318 670.453918, 76.899361 693.087463C 79.064346 667.600708, 148.211655 655.757385, 144.612183 682.333435C 153.482620 659.908325, 224.457184 664.981995, 221.898743 685.928101C 226.547592 658.814270, 273.383881 680.455017, 272.631012 702.191040C 283.006134 703.895264, 294.568756 723.057068, 273.093781 723.520020C 281.796783 757.285889, 229.883163 762.695557, 223.070786 739.944702C 217.272568 769.941589, 161.425339 771.647034, 145.585571 743.770569Z
" /></g></svg>